{"title":"The.Incredible.Shrinking.Man.1957.HQTV.720p.x264.AC3.[FrOnkY]","uid":9640622,"size":2736861977,"categoryP":"video","categoryS":"hd___movies","magnet":"?xt=urn:btih:2284a05a0307db31fac434185e5604e6eca795e7&amp;dn=The.Incredible.Shrinking.Man.1957.HQTV.720p.x264.AC3.%5BFrOnkY%5D&amp;tr=udp%3A%2F%2Ftracker.openbittorrent.com%3A80&amp;tr=udp%3A%2F%2Fopen.demonii.com%3A1337&amp;tr=udp%3A%2F%2Ftracker.coppersurfer.tk%3A6969&amp;tr=udp%3A%2F%2Fexodus.desync.com%3A6969","seeders":1,"leechers":0,"uploader":"HDmEntEs","files":-1,"time":1392920930,"description":"The Best Sci-Fi Movie Of The 50s. A fascinating adventure into the unknown!\n\n\nThe.Incredible.Shrinking.Man.1957.HQTV.720p.x264.AC3.[FrOnkY].mkv\n\nFormat                                   : Matroska\nFormat version                           : Version 4 / Version 2\nFile size                                : 2.55 GiB\nDuration                                 : 1h 20mn\nOverall bit rate                         : 4 514 Kbps\nWriting application                      : mkvmerge v6.6.0 ('The Edge Of The In Between') built on Dec  1 2013 17:55:00\nWriting library                          : libebml v1.3.0 + libmatroska v1.4.1\nAttachment                               : Yes / Yes / Yes / Yes / Yes / Yes\n\nVideo\nID                                       : 1\nFormat                                   : AVC\nFormat/Info                              : Advanced Video Codec\nFormat profile                           : &lt;a class=&quot;__cf_email__&quot; href=&quot;/cdn-cgi/l/email-protection&quot; data-cfemail=&quot;2b63424c436b671f051a&quot;&gt;[email&amp;#160;protected]&lt;/a&gt;&lt;script cf-hash='f9e31' type=&quot;text/javascript&quot;&gt;\n/* &lt;![CDATA[ */!function(){try{var t=&quot;currentScript&quot;in document?document.currentScript:function(){for(var t=document.getElementsByTagName(&quot;script&quot;),e=t.length;e--;)if(t[e].getAttribute(&quot;cf-hash&quot;))return t[e]}();if(t&amp;&amp;t.previousSibling){var e,r,n,i,c=t.previousSibling,a=c.getAttribute(&quot;data-cfemail&quot;);if(a){for(e=&quot;&quot;,r=parseInt(a.substr(0,2),16),n=2;a.length-n;n+=2)i=parseInt(a.substr(n,2),16)^r,e+=String.fromCharCode(i);e=document.createTextNode(e),c.parentNode.replaceChild(e,c)}}}catch(u){}}();/* ]]&gt; */&lt;/script&gt;\nFormat settings, CABAC                   : Yes\nFormat settings, ReFrames                : 9 frames\nCodec ID                                 : V_MPEG4/ISO/AVC\nDuration                                 : 1h 20mn\nBit rate                                 : 4 321 Kbps\nWidth                                    : 1 280 pixels\nHeight                                   : 690 pixels\nDisplay aspect ratio                     : 1.85:1\nFrame rate mode                          : Constant\nFrame rate                               : 23.976 fps\nColor space                              : YUV\nChroma subsampling                       : 4:2:0\nBit depth                                : 8 bits\nScan type                                : Progressive\nBits/(Pixel*Frame)                       : 0.204\nStream size                              : 2.39 GiB (94%)\nWriting library                          : x264 core 133 r2334 a3ac64b\nLanguage                                 : English\nDefault                                  : Yes\nForced                                   : No\n\nAudio\nID                                       : 2\nFormat                                   : AC-3\nFormat/Info                              : Audio Coding 3\nMode extension                           : CM (complete main)\nFormat settings, Endianness              : Big\nCodec ID                                 : A_AC3\nDuration                                 : 1h 20mn\nBit rate                                 : 192 Kbps\nChannel(s)                               : 2 channels\nChannel positions                        : Front: L R\nSampling rate                            : 48.0 KHz\nBit depth                                : 16 bits\nStream size                              : 111 MiB (4%)\nLanguage                                 : English\nDefault                                  : Yes\nForced                                   : No\n\nText #1\nID                                       : 3\nFormat                                   : UTF-8\nCodec ID                                 : S_TEXT/UTF8\nCodec ID/Info                            : UTF-8 Plain Text\nLanguage                                 : Spanish\nDefault                                  : No\nForced                                   : No\n\nText #2\nID                                       : 4\nFormat                                   : UTF-8\nCodec ID                                 : S_TEXT/UTF8\nCodec ID/Info                            : UTF-8 Plain Text\nLanguage                                 : English\nDefault                                  : No\nForced                                   : No\n\nText #3\nID                                       : 5\nFormat                                   : UTF-8\nCodec ID                                 : S_TEXT/UTF8\nCodec ID/Info                            : UTF-8 Plain Text\nLanguage                                 : French\nDefault                                  : No\nForced                                   : No\n\nText #4\nID                                       : 6\nFormat                                   : UTF-8\nCodec ID                                 : S_TEXT/UTF8\nCodec ID/Info                            : UTF-8 Plain Text\nLanguage                                 : Italian\nDefault                                  : No\nForced                                   : No\n\nText #5\nID                                       : 7\nFormat                                   : UTF-8\nCodec ID                                 : S_TEXT/UTF8\nCodec ID/Info                            : UTF-8 Plain Text\nLanguage                                 : Portuguese\nDefault                                  : No\nForced                                   : No\n\nMenu\n00:00:00.000                             : en:Chapter 01\n00:01:20.000                             : en:Chapter 02\n00:04:27.367                             : en:Chapter 03\n00:06:59.734                             : en:Chapter 04\n00:10:31.834                             : en:Chapter 05\n00:16:37.134                             : en:Chapter 06\n00:21:29.035                             : en:Chapter 07\n00:26:35.836                             : en:Chapter 08\n00:30:48.403                             : en:Chapter 09\n00:36:58.737                             : en:Chapter 10\n00:42:38.304                             : en:Chapter 11\n00:46:43.671                             : en:Chapter 12\n00:52:55.405                             : en:Chapter 13\n01:02:40.839                             : en:Chapter 14\n01:06:33.939                             : en:Chapter 15\n01:10:50.773                             : en:Chapter 16\n01:17:40.940                             : en:Chapter 17\n01:20:13.674                             : en:Chapter 18\n01:20:44.375                             : en:Chapter 19\n\n\nSCREENS:\n &lt;a href=&quot;\nhttp://box.jisko.net/i/e2b22239.png&quot; rel=&quot;nofollow&quot; target=&quot;_NEW&quot;&gt;\nhttp://box.jisko.net/i/e2b22239.png&lt;/a&gt;\n &lt;a href=&quot;\nhttp://box.jisko.net/i/f8ff52c5.png&quot; rel=&quot;nofollow&quot; target=&quot;_NEW&quot;&gt;\nhttp://box.jisko.net/i/f8ff52c5.png&lt;/a&gt;\n &lt;a href=&quot;\nhttp://box.jisko.net/i/2953fb3f.png&quot; rel=&quot;nofollow&quot; target=&quot;_NEW&quot;&gt;\nhttp://box.jisko.net/i/2953fb3f.png&lt;/a&gt;\n &lt;a href=&quot;\nhttp://box.jisko.net/i/62db54fc.png&quot; rel=&quot;nofollow&quot; target=&quot;_NEW&quot;&gt;\nhttp://box.jisko.net/i/62db54fc.png&lt;/a&gt;\n\nDVD vs HQTV:\n &lt;a href=&quot;\nhttp://box.jisko.net/i/7831a484.png&quot; rel=&quot;nofollow&quot; target=&quot;_NEW&quot;&gt;\nhttp://box.jisko.net/i/7831a484.png&lt;/a&gt;\n &lt;a href=&quot;\nhttp://box.jisko.net/i/d436eea1.png&quot; rel=&quot;nofollow&quot; target=&quot;_NEW&quot;&gt;\nhttp://box.jisko.net/i/d436eea1.png&lt;/a&gt;","torrent":{"xt":"urn:btih:2284a05a0307db31fac434185e5604e6eca795e7","amp;dn":"The.Incredible.Shrinking.Man.1957.HQTV.720p.x264.AC3.%5BFrOnkY%5D","amp;tr":["udp%3A%2F%2Ftracker.openbittorrent.com%3A80","udp%3A%2F%2Fopen.demonii.com%3A1337","udp%3A%2F%2Ftracker.coppersurfer.tk%3A6969","udp%3A%2F%2Fexodus.desync.com%3A6969"],"infoHash":"2284a05a0307db31fac434185e5604e6eca795e7","infoHashBuffer":{"type":"Buffer","data":[34,132,160,90,3,7,219,49,250,196,52,24,94,86,4,230,236,167,149,231]},"announce":[],"urlList":[]}}